<?xml version="1.0" encoding="utf-8"?>
<!-- Generator: Adobe Illustrator 18.1.0, SVG Export Plug-In . SVG Version: 6.00 Build 0)  -->
<!DOCTYPE svg PUBLIC "-//W3C//DTD SVG 1.1//EN" "http://www.w3.org/Graphics/SVG/1.1/DTD/svg11.dtd">
<svg version="1.1" id="Layer_1" xmlns="http://www.w3.org/2000/svg" xmlns:xlink="http://www.w3.org/1999/xlink" x="0px" y="0px"
	 viewBox="0 0 500 188" enable-background="new 0 0 500 188" xml:space="preserve">
<symbol  id="Duplicate_Items_Folder_x2F_blackboardVectorLogo_x5F_Black" viewBox="0 -430.1 3073.8 430.1">
	<path fill-rule="evenodd" clip-rule="evenodd" fill="#FFFFFF" fill-opacity="0.9922" d="M3073.8-25.4c0-7-2.5-13-7.4-18
		c-5-4.9-11-7.4-18-7.4c-7,0-13,2.5-18,7.4c-5,5-7.4,11-7.4,18s2.5,13,7.4,17.9c4.9,5,10.9,7.5,18,7.5c7,0,13-2.5,18-7.5
		C3071.3-12.4,3073.8-18.4,3073.8-25.4z M3062.1-39.1c3.8,3.8,5.6,8.4,5.6,13.8s-1.9,9.9-5.6,13.7c-3.8,3.8-8.4,5.7-13.8,5.7
		s-9.9-1.9-13.7-5.7c-3.8-3.8-5.7-8.3-5.7-13.7s1.9-10,5.7-13.8c3.8-3.8,8.3-5.6,13.7-5.6S3058.3-42.9,3062.1-39.1z M3052.3-30.4
		c-0.1,1.1-0.8,1.8-2,2h-6.9v-9.9h-5.9v25.9h14.9c4.5-0.5,6.6-3.1,6.4-7.8c0.1-2.3-0.9-4.2-3-5.5c1.6-0.6,2.3-1.7,2.3-3.2v-7.8
		c0.1-0.9,0.5-1.4,1.2-1.6h-5.9c-0.8,0.2-1.2,0.7-1.2,1.5V-30.4z M3043.4-17.5v-5.9h6.9c1.3,0.4,1.9,1.2,2,2.5v1.5
		c-0.1,1.2-0.9,1.8-2.3,1.9H3043.4z M2987.4-1.2c0-19.7,0-39.3,0-59s0-39.3,0-59s0-39.3,0-59s0-39.3,0-59s0-39.3,0-59s0-39.3,0-59
		c0-19.7,0-39.3,0-59c0-3,0-6,0-9c-19.7,0-39.3,0-59,0c-3.2,0-6.4,0-9.7,0h-0.5l0.1,20c0,0.4,0,0.7,0,1.1l-0.1,29.1
		c-8.6-11.7-18.4-22-29.4-30.8c-5.5-4.4-11.4-8.3-17.8-11.8c-12.9-7-28.1-11.2-45.8-12.7c-20.7-1.7-38.4-0.2-53.1,4.5
		c-15,4.8-28.1,11.4-39.4,19.8c-5.8,4.3-11.2,9-16.1,14.1c-9.7,10-18,21.3-24.9,33.9c-7,12.8-12.2,27.1-15.8,42.9
		c-2.5,11.1-4,23.1-4.6,36c-1,19.1,0.6,37.4,4.7,54.9c1.9,7.2,4.9,15.6,9,25c6,13.7,13.5,25.9,22.5,36.5c4.6,5.4,9.6,10.5,15,15
		c10.6,9.1,22.7,16.8,36.3,23.1c13.3,6.1,29.4,9.6,48.3,10.3c20.4,0.8,37.5-1.6,51.4-7.1c14.3-5.7,26.6-13.2,36.9-22.6
		c7.9-7.1,15.5-15.1,22.8-24l0.1,36.1c0,7.1-0.1,14.2-0.1,21.4c0,4.8,0,9.5,0,14.3c0,0.7,0,1.4,0,2c0,0.6,0,1.2,0,1.8v56.8
		c0,0.1,0,0.3,0,0.4c0,10.7,0,21.3,0,32c19.7,0,39.3,0,59,0C2980.7-1.2,2984-1.2,2987.4-1.2z M2773.9-192.7
		c-1.5-1.3-2.9-2.5-4.2-3.8c-8.8-8.3-15.5-18.8-20.1-31.6c-0.6-1.5-1.2-3.1-1.8-4.8c-0.4-1.4-0.8-2.9-1.2-4.3c-0.5-2.4-1-4.7-1.5-7
		c-0.9-4.7-1.6-9.5-2-14.5c-0.4-4.9-0.6-9.8-0.4-14.8c0.1-4.4,0.4-8.7,0.9-13.1c1.6-13.8,5.1-25.7,10.6-35.8
		c6.9-12.8,16.1-23.3,27.6-31.4c0.4-0.3,0.8-0.6,1.2-1c11-8.6,26.1-13.1,45.4-13.6c10.3-0.3,19.3,0.9,26.9,3.5
		c14.6,4.9,26.7,12.4,36.4,22.4c9.7,10,16.8,22.5,21.4,37.4c2.4,7.8,3.9,16.1,4.5,24.9c0.9,13.7,0.1,26-2.5,36.9
		c-3.8,15.7-10.4,28.7-19.7,39.1c-0.3,0.4-0.6,0.7-0.9,1.1c-8.6,11.1-20,19.4-34.1,24.9c-7.2,2.8-15.5,4.5-24.9,5
		c-7.7,0.4-14.7,0-21-1.2C2797.9-177.5,2784.4-183.6,2773.9-192.7z M2662.4-112.2c0-19.7,0-39.3-0.1-59c0-3.9,0-7.8,0.1-11.7
		c0-0.4,0-0.9,0-1.3v-1.9h-10c-4.3-0.1-8.6-0.4-13-1c-17.3-2.4-31.5-7.9-42.4-16.6c-0.4-0.3-0.8-0.7-1.2-1
		c-10.9-8.7-19.8-19.3-26.5-32c-7-13-11.7-28.1-14.1-45.5c-1.2-8.7-1.8-18-1.8-28c0-19.7,0-39.3,0-59c0-18,0-36,0-54
		c-19.7,0-39.3,0-59,0c-3.3,0-6.6,0-10,0c0,19.7,0,39.3,0,59c0,19.7,0,39.3,0,59s0,39.3,0,59s0,39.3,0,59s0,39.3,0,59
		c0,3.3,0,6.7,0,10c19.7,0,39.3,0,59,0c3.4,0,6.7,0,10,0c0-9.8,0-19.7-0.1-29.5l0.2-40.3c6.8,14.7,14.5,27.5,23.2,38.3
		c8.8,11,19.7,19.8,32.7,26.5c13,6.7,29,10.3,48,10.9C2659-112.3,2660.7-112.2,2662.4-112.2z M2334.5-187.1
		c-12.1,7.6-27.8,11.5-47.1,11.8c-19.9,0.3-37.6-1.6-53.1-5.6c-13.3-3.5-25.6-7.9-36.9-13.3c-5.5,14.2-10.6,28.8-15.3,43.9
		c-0.1,0.4-0.3,0.8-0.4,1.2c-1.4,3.4-2.5,7-3.2,10.9c7.1,2.9,14.4,5.8,21.8,8.5c14.1,5.3,29.5,9.4,46.2,12.1
		c8.8,1.4,17.8,2.4,27,3.1c19.1,1.4,37.5,0.8,55-1.8c17.2-2.5,31.9-7.3,44.3-14.5c1.8-1,3.6-2.1,5.2-3.2
		c11.7-7.8,21.6-17.4,29.8-28.8c2.2-3,4.1-6.1,5.9-9.4c6.8-12.8,11.3-27.9,13.3-45.1c1.3-11.3,1.9-23.3,1.8-36
		c-0.2-19.7-0.3-39.3-0.3-59s0-39.3,0-59c0-17.3,0-34.7,0-52c-19.7,0-39.3,0-59,0c-3.3,0-6.6,0-10,0c1.1,5.2,1.6,11.2,1.4,18
		c-0.2,6-0.5,12-0.8,18c0,0.4-0.2,0.7-0.5,1c-9.6-10.1-20.4-18.9-32.4-26.4c-1.7-1.1-3.5-2.2-5.3-3.2c-6.2-3.6-13.3-6.5-21.2-8.7
		c-15.3-4.2-33.3-5.6-54-4.2c-9,0.6-17.4,2-25.1,4.2c-15.5,4.3-28.6,10.9-39.3,19.8c-10.7,9-18.9,20.5-24.5,34.5
		c-4,10-6.1,21.8-6.4,35.4c0,0.7,0.1,1.4,0.1,2.1c0.3,3.9,0.6,7.9,1.1,11.9c0.4,3.9,1.1,7.8,2,11.5c0.7,3.2,1.6,6.3,2.7,9.5
		c1.2,3.7,2.8,7.3,4.8,10.8c1.8,3.3,3.8,6.4,6.1,9.4c1,1.2,1.9,2.5,2.9,3.8c0.1,0.2,0.2,0.3,0.4,0.5c0.5,0.6,1,1.1,1.5,1.7
		c9.4,10.3,21,18.4,34.8,24.3c7,3,14.4,5.3,22.1,7.1c4.5,1,8.8,1.9,12.9,2.6c12.7,2.2,26.6,3.2,42,3c19.7-0.3,37.4-2.4,53.1-6.3
		c7.6-1.9,14.9-4,21.9-6.3c1.2,3.8,1.6,8.5,1.2,14c-1.3,18.5-7.2,32.4-17.5,41.7C2340.4-191.2,2337.5-189.1,2334.5-187.1z
		 M2014-187.7c-12,7.8-26.9,12.4-44.7,13.8c-10.2,0.8-19.3,0.2-27.1-1.6c-6.2-1.5-11.7-3.5-16.7-5.9c-13.2-6.4-24-15.1-32.6-26.1
		c-0.3-0.4-0.7-0.8-1-1.2c-6.5-8.3-11.2-18.2-14.4-29.7c-3.4-11.2-5.1-23.9-5-38.2c0.4-7.6,1.4-14.5,3.1-20.7
		c4.2-15.8,10.9-29,20-39.6c2.3-2.7,4.7-5.2,7.2-7.8c9.9-9.8,22.5-16.8,37.7-20.9c6-1.6,12.3-2.6,18.9-2.9c20.2-1,36.6,1.9,49.4,8.6
		c13,6.9,23.5,16.1,31.6,27.7c8.1,11.6,13.7,25.9,16.9,42.9c1.6,8.8,1.9,17.9,0.8,27.2c-2.2,17.8-7.1,32.8-14.7,44.8
		C2035.6-205.4,2025.8-195.5,2014-187.7z M2325.3-285.7c-8.9,1.3-17.9,2.2-27,2.6c-19.9,0.8-36.8-1.7-50.7-7.7
		c-13.6-5.8-22.4-16.6-26.2-32.4c-0.6-8.9,0.3-16.5,2.5-22.8c5.2-14.2,15.7-23.4,31.4-27.6c3.9-1,7.9-1.7,12.1-2.1
		c19-1.8,35.9,0.1,50.8,5.9c14.1,5.4,25,14,32.9,25.8c7.9,11.8,11,28.4,9.2,49.9C2349.5-290.5,2337.8-287.6,2325.3-285.7z
		 M2002.5-115.5c16.3-3.8,30.8-9.3,43.5-16.3c12.5-7,23.9-15.2,34-24.8c10.2-9.5,19-20.4,26.5-32.6c7.5-12.1,13.2-26.1,17.2-42
		c3.9-15.5,5.2-33.5,3.7-54.1c-0.7-8.8-2-17.1-4-25.1c-4-15.7-9.7-29.7-17.2-41.9c-7.5-12.1-16.3-23-26.3-32.6
		c-10.1-9.6-21.4-17.9-34-24.8c-12.9-7-27.1-12.4-42.8-16.1c-6.2-1.5-12.5-2.6-18.9-3.3c-13.9-1.6-27.9-1.5-41.9,0.2
		c-17.1,2.2-32.5,6.3-46.1,12.3c-13.7,6.1-25.9,13.5-36.8,22.4c-10.8,8.8-20.5,18.9-28.9,30.2c-8.3,11.2-15,24.3-20,39.3
		c-1.2,3.5-2.3,7.2-3.3,11.2c-3.4,13.2-5.1,28.2-5.1,44.9c0.2,3.8,0.4,7.6,0.8,11.3c0.3,3.7,0.7,7.5,1.3,11.2
		c0.7,3.8,1.5,7.6,2.5,11.3c1,3.7,1.9,7.4,2.8,11c0.7,2.3,1.5,4.7,2.4,7.1c3.9,11.4,10,23,18.1,34.7c5,7.2,10.5,14,16.4,20.3
		c9.5,10.1,20.4,19,32.6,26.6c12.1,7.5,26.1,13.1,42.1,17c0.4,0.1,0.8,0.2,1.2,0.3c15.5,4.3,33.5,6.1,53.9,5.4
		C1986-112.5,1994.8-113.6,2002.5-115.5z M1676-197.5c-1.3,1.4-2.6,2.7-4,4c-10.2,9.4-23.5,15.7-39.8,18.9c-9.4,1.8-18.7,2.1-28,0.9
		c-9.2-1.2-17.1-3.4-23.9-6.6c-6.7-3.2-12.9-7-18.6-11.2c-5.7-4.4-10.8-9.4-15.1-15.2c-2-2.7-3.9-5.5-5.6-8.5
		c-3.4-6.4-6-13.2-7.9-20.2c-2.1-7.6-3.7-15.4-4.9-23.3c-1-7.5-1.2-14.9-0.6-22.2c0.7-7.4,2-14.7,3.9-21.9c0.7-2.8,1.5-5.5,2.4-8.2
		c0-0.1,0-0.1,0-0.1c5.6-14.2,13.4-26,23.6-35.5c10.1-9.5,23.3-16.2,39.5-19.9c1.9-0.4,4-0.7,6.1-0.9c10.4-0.8,20.1-0.6,28.9,0.7
		c8.6,1.3,16.1,3.6,22.5,7c13,6.9,23.4,16.3,31.1,28.1c0.3,0.5,0.6,0.9,0.9,1.4c8.1,11.5,13.2,25.9,15.4,43.4
		c2.4,19.7,1,37.1-4.1,52.2C1693-220.1,1685.7-207.6,1676-197.5z M1690.7-124.7c13.4-6.5,25.1-14.5,35.2-24
		c10.1-9.5,18.8-20.4,26.1-32.7c7.3-12.4,13-26.4,17.1-41.8c4.1-15.7,5.9-33.7,5.4-54c-0.4-19.4-3-36.4-7.8-51.1
		c-4.8-15-11.3-28.3-19.3-39.9c-8.1-11.6-17.5-21.9-28.2-30.9c-10.7-9-23.2-16.3-37.6-21.9c-6.9-2.7-14.7-4.9-23.3-6.4
		c-8.3-1.5-17.6-2.2-28-2.1c-19.6,0.3-36.1,3.5-49.4,9.6c-13.7,6.3-25.4,14.4-35.2,24.2c-6.2,6.2-12,12.7-17.4,19.6v-47h-1.8
		c-19.4,0-38.8,0-58.2,0c-3.3,0-6.7,0-10,0c0,19.7,0,39.3,0,59c0,19.7,0,39.3,0,59s0,39.3,0,59s0,39.3,0,59s0,39.3,0,59s0,39.3,0,59
		s0,39.3,0,59c0,3,0,6,0,9c19.7,0,39.3,0,59,0c3.3,0,6.5,0,9.8,0h0.6l0-168.5c8.5,11.8,18.2,22.2,29,31
		c10.8,8.9,23.4,15.8,37.9,20.7c3,1,6,1.9,8.8,2.6c11.8,2.9,25.5,3.8,40.9,2.5C1662.1-114.4,1677.5-118.3,1690.7-124.7z M1320.1-129
		c3.5,3.5,6.9,7.1,10.2,10.8c19.7,0,39.3,0,59,0c8.3,0,16.7,0,25,0c-9.7-10-19.4-20-29.1-30c-9.7-10-19.5-19.8-29.5-29.4
		c-10-9.7-19.6-19.7-28.9-30.1c-2.3-2.6-4.8-5.2-7.2-7.7c-8.8-8.8-17.6-17.8-26.2-26.8c7.8-11.9,15.7-23.6,23.9-35
		c8.2-11.5,16.4-23,24.6-34.6c8.1-11.4,16.2-23.1,24.1-35c7.9-11.7,15.7-23.3,23.5-34.9c8-11.9,16.1-23.5,24.2-34.9
		c0.2-0.2,0.3-0.5,0.5-0.7c0.7-0.9,1.4-1.8,2.1-2.7l2.5-3.1l-44-0.1c-9.8,0.1-19.7,0.1-29.5,0.1c-2,0-4,0-6,0
		c-8.4,11.2-16.6,22.7-24.6,34.3c-8,11.8-16.1,23.4-24.3,34.8c-8.2,11.5-16.4,23-24.6,34.6c-6.6,9.3-13.1,18.8-19.5,28.3
		c-10.1-9.5-20-19.4-29.5-29.5c-4.7-5-9.5-9.8-14.5-14.5c0-19.7,0-39.3,0-59c0-9.7,0-19.3,0-29c-19.7,0-39.3,0-59,0
		c-3.3,0-6.7,0-10,0c0,19.7,0,39.3,0,59c0,19.7,0,39.3,0,59s0,39.3,0,59s0,39.3,0,59s0,39.3,0,59s0,39.3,0,59s0,39.3,0,59
		c0,3,0,6,0,9c19.7,0,39.3,0,59,0c3.3,0,6.7,0,10,0c0-19.7,0-39.3,0-59s0-39.3,0-59s0-39.3,0-59s0-39.3,0-59c0-5,0.1-10,0.4-15
		c0-0.4,0.2-0.7,0.6-1c9.8,9.9,19.5,19.9,29,30c9.6,10.1,19.1,20.2,28.7,30.3c9.5,10.1,18.9,20.4,28.2,30.8
		c9.3,10.4,18.8,20.6,28.4,30.7C1318.5-130.7,1319.3-129.8,1320.1-129z M1030.6-120.6c14.7-5.3,27.5-12.2,38.6-20.8
		c9-7,17.4-14.6,25.1-22.9c-9.5-10.1-19-20.3-28.4-30.6c-4.8-5.2-9.7-10.4-14.6-15.4c-9.4,10.3-20.2,19.2-32.6,26.7
		c-9,5.5-20.1,9.1-33.4,10.8c-9.3,1.2-18.6,1-28-0.7c-16.6-3-30.1-9-40.6-18.1c-7.9-6.9-14.5-15-19.9-24.4c-3.6-6.3-6.6-13.1-9-20.5
		c-5-15.7-6.2-33.2-3.7-52.7c0.2-1.9,0.6-4,1-6.1c3.6-16.1,9.8-29.7,18.5-40.8c8.6-11,19.5-19.7,32.6-26.3
		c13.1-6.5,30.1-8.9,50.9-7.1c8.7,0.8,16.5,2.6,23.4,5.4c14.1,5.8,26.2,13.6,36.2,23.2c2.7,2.6,5.2,5.4,7.5,8.5
		c10-9.7,19.8-19.5,29.4-29.5c3.9-4.1,8.1-7.9,12.6-11.5c-8.9-10.8-19.1-20.3-30.5-28.7c-11.3-8.3-24.2-14.8-38.7-19.7
		c-14.9-5-31.9-7.7-50.8-8.2c-20-0.5-37.4,1.5-52.1,6.2c-15.1,4.8-28.5,11.2-40.4,19.1c-11.7,7.8-22.2,16.9-31.3,27.4
		c-9.2,10.5-17,22.3-23.3,35.4c-6.5,13.5-11.1,28.7-13.9,45.6c-1.2,7.4-1.9,15.3-2,23.8c0,1.2,0,2.4,0,3.6c0,3.6,0.2,7.3,0.6,10.9
		c0.4,3.7,0.9,7.5,1.5,11.2c0.5,3.5,1.1,6.9,1.9,10.2c0.9,3.6,1.8,7.2,2.6,10.7c2.8,10,6.3,19.2,10.7,27.5
		c6.7,12.9,14.8,24.5,24,34.9c9.3,10.4,20,19.4,31.9,27c12,7.7,25.6,13.9,40.9,18.5c15,4.5,32.7,6.5,53.1,5.9
		C999.6-112.6,1016.3-115.5,1030.6-120.6z M722-132.9c12.1-7.4,22.3-16.8,30.4-28.4c8.1-11.5,13.9-25.3,17.4-41.2
		c3.6-16.4,5.2-34.7,5-54.9c-0.2-19.7-0.4-39.3-0.4-59s0-39.3,0-59c0-16,0-32,0-48c-19.7,0-39.3,0-59,0c-3.3,0-6.7,0-10,0
		c0,0.6,0,1.1,0,1.7v34.8L690.8-400c-0.8-0.7-1.6-1.4-2.4-2.1c-5.9-5.2-12.5-9.7-19.8-13.6c-12.6-6.9-28-11.2-46.2-13
		c-8.9-0.9-18.5-1-29-0.4c-9.4,0.5-17.8,1.9-25.2,4c-15.6,4.5-28.8,11.2-39.6,20s-19,20.2-24.8,34c-4,9.8-6.3,21.4-6.7,34.8
		c0,0.9,0,1.8,0,2.7c-0.1,3.7,0.1,7.4,0.4,11c0.3,3.7,0.9,7.4,1.8,11c0.9,3.5,1.9,7,3.1,10.5c1.2,3.6,2.5,7.1,4,10.5
		c3.6,6.8,8.8,13.6,15.5,20.4c10.1,10,22.2,17.8,36.5,23.4c14,5.5,30.4,8.6,49.1,9.4c20.3,0.8,39.2,0,56.9-2.2
		c7.4-1,14.5-2.3,21.2-4c7.2-1.8,14.1-3.6,20.9-5.5c0.6,20.3-3.2,36.1-11.6,47.5c-8.3,11.2-20.2,18.9-35.5,23
		c-8.1,2.2-17,3.3-26.9,3.4c-19.8,0.2-37.4-1.8-53-6c-13.1-3.5-25.4-7.8-37-12.9c-4.7,15-9.5,29.7-14.4,44.2
		c-1.3,3.9-2.9,7.5-4.6,10.8c13.3,6.4,27.6,11.7,43,16c15.4,4.3,32.1,7.1,50,8.6c19.4,1.6,37.7,1.3,55.1-1
		c17.7-2.3,32.8-7,45.2-14.1C718.5-130.7,720.2-131.8,722-132.9z M706.4-294.2c-9.7,3.3-20,6.1-31,8.2c-17,3.3-35,4.1-54,2.5
		c-9.1-0.8-17.2-2.4-24.3-4.9c-10.7-3.7-18.5-10.1-23.5-19.1c-5.1-8.1-7.1-18.3-6.2-30.6c2.8-15.2,10.5-25.6,22.9-31.4
		c6.8-3.1,14.5-5.1,23.2-6c18.9-1.9,35.8,0.1,50.7,5.9c13.9,5.5,24.8,14.1,32.5,25.9C704.5-331.9,707.8-315.4,706.4-294.2z
		 M453.4-60.2c0-19.7,0-39.3,0-59s0-39.3,0-59s0-39.3,0-59s0-39.3,0-59s0-39.3,0-59c0-19.7,0-39.3,0-59c0-3,0-6,0-9
		c-19.7,0-39.3,0-59,0c-3.3,0-6.7,0-10,0c0,19.7,0,39.3,0,59c0,19.7,0,39.3,0,59s0,39.3,0,59s0,39.3,0,59s0,39.3,0,59s0,39.3,0,59
		s0,39.3,0,59c0,3,0,6,0,9c19.7,0,39.3,0,59,0c3.3,0,6.7,0,10,0C453.4-20.9,453.4-40.6,453.4-60.2z M333.5-291.4
		c1.5-9,2-18.6,1.7-28.9c-0.3-9.6-1.7-18-4.2-25.2c-5-15-12.4-27.4-22.2-37.2c-5-5-10.5-9.5-16.4-13.6c-11.7-8-25.1-14.1-40.3-18.2
		c-15.7-4.3-32.6-6.9-50.9-7.9c-10-0.5-19.9-0.8-29.9-0.8c-19.7,0-39.3,0-59,0c-19.7,0-39.3,0-59,0c-13.2,0-26.4,0-39.6,0
		c-4.6,0-9.2,0-13.8,0v405c4.6,0,9.1,0,13.8,0c14.9,0,29.7,0,44.6,0c19.7,0,39.3,0,59,0c19.7,0,39.3,0,59,0c19.6,0,37.3-1.9,53-5.7
		c16-3.8,29.8-9.6,41.5-17.5c11.8-8,21.5-18,28.9-30.1c1.1-1.7,2.1-3.5,3.1-5.4c6.8-12.7,10-28.8,9.5-48.2
		c-0.4-18.6-4.2-34.1-11.4-46.4c-7.3-12.5-16.9-22.6-28.8-30.5c-5.5-3.6-11.1-6.9-16.9-10.1c0,0,0-0.1,0-0.1L268-218
		c13.6-5.3,25.5-12.2,35.8-20.8c0.4-0.3,0.8-0.7,1.1-1c10.5-9.1,18.5-20.7,24-34.7C331-279.9,332.5-285.5,333.5-291.4z M68.4-301.2
		c0-19.7,0-39.3,0-59c17,0,34,0,51,0c19.7,0,39.3-0.1,59-0.2c20-0.2,37.2,2.4,51.9,7.6c14.3,5.2,24.5,14.6,30.5,28.5
		c3.3,7.5,4.4,15.9,3.4,25.2c-1,9.4-3.6,17-7.9,22.9c-5.2,7.2-12,12.8-20.6,16.8c-13.3,6.2-29.7,9.3-49.4,9.3c-19.7,0-39.3,0-59,0
		c-19.7,0-39.3,0-59,0C68.4-267.2,68.4-284.2,68.4-301.2z M198.5-84.5c-3.8,0.9-7.8,1.4-12.2,1.5c-19.7,0.5-39.3,0.8-59,0.8
		c-19.7,0-39.3,0-59,0c0-15.7,0-31.3,0-47c0-19.7,0-39.3,0-59c7.7,0,15.3,0,23,0c19.7,0,39.3-0.2,59-0.6c20.5-0.4,38.4,1.7,53.8,6.4
		c14.8,4.5,25.6,13.2,32.4,26.1c3.4,6.5,4.8,14.9,4.2,25.1c-1.1,18.2-7.9,30.9-20.2,38.3C214.3-89.2,207-86.4,198.5-84.5z"/>
</symbol>
<use xlink:href="#Duplicate_Items_Folder_x2F_blackboardVectorLogo_x5F_Black"  width="3073.8" height="430.1" id="XMLID_1_" x="0" y="-430.1" transform="matrix(0.1495 0 0 -0.1495 20.2002 58.75)" overflow="visible"/>
</svg>
